<svg width="95" height="95" viewBox="0 0 95 95" fill="none" xmlns="http://www.w3.org/2000/svg">
<path d="M47.4997 3.95831C23.4528 3.95831 3.95801 23.4521 3.95801 47.5C3.95801 71.5478 23.4528 91.0416 47.4997 91.0416C71.5465 91.0416 91.0413 71.5478 91.0413 47.5C91.0413 23.4521 71.5465 3.95831 47.4997 3.95831ZM47.4997 83.125C27.8248 83.125 11.8747 67.1749 11.8747 47.5C11.8747 27.8251 27.8248 11.875 47.4997 11.875C67.1746 11.875 83.1247 27.8251 83.1247 47.5C83.1247 67.1749 67.1746 83.125 47.4997 83.125Z" fill="black"/>
<path d="M38.25 57.5C36.3162 57.5 34.7675 59.0662 34.7675 61C34.7675 62.9338 36.3162 64.5 38.25 64.5C40.1838 64.5 41.75 62.9338 41.75 61C41.75 59.0662 40.1838 57.5 38.25 57.5ZM27.75 29.5V33H31.25L37.5412 46.2738L35.1787 50.5612C34.9075 51.0687 34.75 51.6375 34.75 52.25C34.75 54.1838 36.3162 55.75 38.25 55.75H59.25V52.25H38.9938C38.7488 52.25 38.5563 52.0575 38.5563 51.8125C38.5563 51.7337 38.5737 51.6638 38.6087 51.6025L40.175 48.75H53.2125C54.525 48.75 55.6712 48.0238 56.275 46.9475L62.5312 35.59C62.6712 35.345 62.75 35.0562 62.75 34.75C62.75 33.7787 61.9625 33 61 33H35.1263L33.4637 29.5H27.75ZM55.75 57.5C53.8162 57.5 52.2675 59.0662 52.2675 61C52.2675 62.9338 53.8162 64.5 55.75 64.5C57.6838 64.5 59.25 62.9338 59.25 61C59.25 59.0662 57.6838 57.5 55.75 57.5Z" fill="#78D5E4"/>
</svg>
