<svg width="95" height="95" viewBox="0 0 95 95" fill="none" xmlns="http://www.w3.org/2000/svg">
<path d="M47.4997 3.95837C23.4528 3.95837 3.95801 23.4522 3.95801 47.5C3.95801 71.5479 23.4528 91.0417 47.4997 91.0417C71.5465 91.0417 91.0413 71.5479 91.0413 47.5C91.0413 23.4522 71.5465 3.95837 47.4997 3.95837ZM47.4997 83.125C27.8248 83.125 11.8747 67.1749 11.8747 47.5C11.8747 27.8251 27.8248 11.875 47.4997 11.875C67.1746 11.875 83.1247 27.8251 83.1247 47.5C83.1247 67.1749 67.1746 83.125 47.4997 83.125Z" fill="black"/>
<path d="M34.7188 64V29.875H46.6719C50.8125 29.875 53.9531 30.6719 56.0938 32.2656C58.2344 33.8438 59.3047 36.1641 59.3047 39.2266C59.3047 40.8984 58.875 42.375 58.0156 43.6562C57.1562 44.9219 55.9609 45.8516 54.4297 46.4453C56.1797 46.8828 57.5547 47.7656 58.5547 49.0938C59.5703 50.4219 60.0781 52.0469 60.0781 53.9688C60.0781 57.25 59.0312 59.7344 56.9375 61.4219C54.8438 63.1094 51.8594 63.9688 47.9844 64H34.7188ZM41.75 49.1406V58.3516H47.7734C49.4297 58.3516 50.7188 57.9609 51.6406 57.1797C52.5781 56.3828 53.0469 55.2891 53.0469 53.8984C53.0469 50.7734 51.4297 49.1875 48.1953 49.1406H41.75ZM41.75 44.1719H46.9531C50.5 44.1094 52.2734 42.6953 52.2734 39.9297C52.2734 38.3828 51.8203 37.2734 50.9141 36.6016C50.0234 35.9141 48.6094 35.5703 46.6719 35.5703H41.75V44.1719Z" fill="#78D5E4"/>
</svg>
