<svg width="95" height="95" viewBox="0 0 95 95" fill="none" xmlns="http://www.w3.org/2000/svg">
<path d="M47.4997 3.95837C23.4528 3.95837 3.95801 23.4522 3.95801 47.5C3.95801 71.5479 23.4528 91.0417 47.4997 91.0417C71.5465 91.0417 91.0413 71.5479 91.0413 47.5C91.0413 23.4522 71.5465 3.95837 47.4997 3.95837ZM47.4997 83.125C27.8248 83.125 11.8747 67.1749 11.8747 47.5C11.8747 27.8251 27.8248 11.875 47.4997 11.875C67.1746 11.875 83.1247 27.8251 83.1247 47.5C83.1247 67.1749 67.1746 83.125 47.4997 83.125Z" fill="black"/>
<path d="M53.1641 56.9688H40.8359L38.4922 64H31.0156L43.7188 29.875H50.2344L63.0078 64H55.5312L53.1641 56.9688ZM42.7344 51.2734H51.2656L46.9766 38.5L42.7344 51.2734Z" fill="#78D5E4"/>
</svg>
