<svg width="96" height="96" viewBox="0 0 96 96" fill="none" xmlns="http://www.w3.org/2000/svg">
<path d="M48 4C23.7 4 4 23.699 4 48C4 72.301 23.7 92 48 92C72.3 92 92 72.301 92 48C92 23.699 72.3 4 48 4ZM48 84C28.118 84 12 67.882 12 48C12 28.118 28.118 12 48 12C67.882 12 84 28.118 84 48C84 67.882 67.882 84 48 84Z" fill="black"/>
<path d="M35.3999 40.02L32.4599 35.12L34.4199 33.16L39.3199 36.1V38.06L44.3599 43.1C44.3599 43.24 44.3599 43.38 44.3599 43.52L42.5399 45.2L37.3599 40.02H35.3999ZM56.3999 51.92C55.9799 51.92 55.6999 51.92 55.2799 51.92C54.2999 51.92 53.4599 51.78 52.6199 51.64L49.6799 55L56.2599 62.42C57.7999 64.1 60.4599 64.24 61.9999 62.56C63.6799 60.88 63.5399 58.36 61.8599 56.82L56.3999 51.92ZM61.1599 46.6C63.3999 44.36 64.0999 41 63.2599 38.06C63.1199 37.5 62.4199 37.36 62.1399 37.78L57.2399 42.68L53.3199 38.76L58.2199 33.86C58.6399 33.44 58.4999 32.88 57.9399 32.74C54.9999 31.76 51.6399 32.46 49.3999 34.84C46.8799 37.36 46.3199 41.28 47.7199 44.36L33.7199 56.82C32.0399 58.36 31.8999 61.02 33.5799 62.56C35.2599 64.24 37.7799 64.1 39.3199 62.42L51.7799 48.42C54.8599 49.82 58.6399 49.26 61.1599 46.6Z" fill="#78D5E4"/>
</svg>
