<svg width="95" height="95" viewBox="0 0 95 95" fill="none" xmlns="http://www.w3.org/2000/svg">
<path d="M47.4997 3.95837C23.4528 3.95837 3.95801 23.4522 3.95801 47.5C3.95801 71.5479 23.4528 91.0417 47.4997 91.0417C71.5465 91.0417 91.0413 71.5479 91.0413 47.5C91.0413 23.4522 71.5465 3.95837 47.4997 3.95837ZM47.4997 83.125C27.8248 83.125 11.8747 67.1749 11.8747 47.5C11.8747 27.8251 27.8248 11.875 47.4997 11.875C67.1746 11.875 83.1247 27.8251 83.1247 47.5C83.1247 67.1749 67.1746 83.125 47.4997 83.125Z" fill="black"/>
<path d="M61.1328 52.6328C60.8672 56.3047 59.5078 59.1953 57.0547 61.3047C54.6172 63.4141 51.3984 64.4688 47.3984 64.4688C43.0234 64.4688 39.5781 63 37.0625 60.0625C34.5625 57.1094 33.3125 53.0625 33.3125 47.9219V45.8359C33.3125 42.5547 33.8906 39.6641 35.0469 37.1641C36.2031 34.6641 37.8516 32.75 39.9922 31.4219C42.1484 30.0781 44.6484 29.4062 47.4922 29.4062C51.4297 29.4062 54.6016 30.4609 57.0078 32.5703C59.4141 34.6797 60.8047 37.6406 61.1797 41.4531H54.1484C53.9766 39.25 53.3594 37.6562 52.2969 36.6719C51.25 35.6719 49.6484 35.1719 47.4922 35.1719C45.1484 35.1719 43.3906 36.0156 42.2188 37.7031C41.0625 39.375 40.4688 41.9766 40.4375 45.5078V48.0859C40.4375 51.7734 40.9922 54.4688 42.1016 56.1719C43.2266 57.875 44.9922 58.7266 47.3984 58.7266C49.5703 58.7266 51.1875 58.2344 52.25 57.25C53.3281 56.25 53.9453 54.7109 54.1016 52.6328H61.1328Z" fill="#78D5E4"/>
</svg>
