<svg width="95" height="95" viewBox="0 0 95 95" fill="none" xmlns="http://www.w3.org/2000/svg">
<path d="M47.4997 3.95837C23.4528 3.95837 3.95801 23.4522 3.95801 47.5C3.95801 71.5479 23.4528 91.0417 47.4997 91.0417C71.5465 91.0417 91.0413 71.5479 91.0413 47.5C91.0413 23.4522 71.5465 3.95837 47.4997 3.95837ZM47.4997 83.125C27.8248 83.125 11.8747 67.1749 11.8747 47.5C11.8747 27.8251 27.8248 11.875 47.4997 11.875C67.1746 11.875 83.1247 27.8251 83.1247 47.5C83.1247 67.1749 67.1746 83.125 47.4997 83.125Z" fill="black"/>
<path d="M34.4375 64V29.875H44.9375C47.9375 29.875 50.6172 30.5547 52.9766 31.9141C55.3516 33.2578 57.2031 35.1797 58.5312 37.6797C59.8594 40.1641 60.5234 42.9922 60.5234 46.1641V47.7344C60.5234 50.9062 59.8672 53.7266 58.5547 56.1953C57.2578 58.6641 55.4219 60.5781 53.0469 61.9375C50.6719 63.2969 47.9922 63.9844 45.0078 64H34.4375ZM41.4688 35.5703V58.3516H44.8672C47.6172 58.3516 49.7188 57.4531 51.1719 55.6562C52.625 53.8594 53.3672 51.2891 53.3984 47.9453V46.1406C53.3984 42.6719 52.6797 40.0469 51.2422 38.2656C49.8047 36.4688 47.7031 35.5703 44.9375 35.5703H41.4688Z" fill="#78D5E4"/>
</svg>
