<svg width="95" height="95" viewBox="0 0 95 95" fill="none" xmlns="http://www.w3.org/2000/svg">
<path d="M47.4997 3.95831C23.4528 3.95831 3.95801 23.4521 3.95801 47.5C3.95801 71.5478 23.4528 91.0416 47.4997 91.0416C71.5465 91.0416 91.0413 71.5478 91.0413 47.5C91.0413 23.4521 71.5465 3.95831 47.4997 3.95831ZM47.4997 83.125C27.8248 83.125 11.8747 67.1749 11.8747 47.5C11.8747 27.8251 27.8248 11.875 47.4997 11.875C67.1746 11.875 83.1247 27.8251 83.1247 47.5C83.1247 67.1749 67.1746 83.125 47.4997 83.125Z" fill="black"/>
<path d="M63.6147 36.7828C62.069 35.2381 59.5624 35.2381 58.0166 36.7828L44.0219 50.7785L38.4239 45.1804C36.8781 43.6347 34.3725 43.6347 32.8258 45.1804C31.2801 46.7262 31.2801 49.2328 32.8258 50.7795L41.2214 59.1741C42.7672 60.7199 45.2748 60.7199 46.8205 59.1741L63.6137 42.3809C65.1604 40.8352 65.1624 38.3295 63.6147 36.7828Z" fill="#78D5E4"/>
</svg>
