<svg width="40" height="40" viewBox="0 0 40 40" fill="none" xmlns="http://www.w3.org/2000/svg">
<rect width="40" height="40" rx="5" fill="black"/>
<path d="M21.7581 26.401C21.7581 26.401 26.2541 30.897 26.5771 31.22C27.6171 32.26 29.3021 32.26 30.3411 31.22C31.3811 30.18 31.3811 28.495 30.3411 27.455C30.0181 27.132 25.5221 22.636 25.5221 22.636L21.7581 26.401Z" fill="#78D5E4"/>
<path d="M28.998 16.003L25.797 15.203L24.997 12.002L28.703 8.29599C26.574 7.61899 24.152 8.11999 22.463 9.80799C20.053 12.218 20.824 15.355 23.235 17.765C25.645 20.175 28.782 20.947 31.192 18.536C32.881 16.847 33.382 14.425 32.704 12.297L28.998 16.003Z" fill="#78D5E4"/>
<path d="M17.5 16.5L14 13L13 10L9 8L7 10L9 14L12 15L15.5 18.5L17.5 16.5Z" fill="#78D5E4"/>
<path d="M22.879 13.879C19.515 17.243 10.243 26.515 9.879 26.879C8.707 28.051 8.707 29.95 9.879 31.122C11.051 32.294 12.95 32.294 14.122 31.122C14.486 30.758 23.758 21.486 27.122 18.122L22.879 13.879ZM12 30C11.448 30 11 29.552 11 29C11 28.448 11.448 28 12 28C12.552 28 13 28.448 13 29C13 29.552 12.552 30 12 30Z" fill="#78D5E4"/>
</svg>
