<svg width="40" height="40" viewBox="0 0 40 40" fill="none" xmlns="http://www.w3.org/2000/svg">
<rect width="40" height="40" rx="5" fill="black"/>
<path d="M31.6 17.9L28.7 17.6C28.5 16.9 28.2 16.2 27.9 15.6L29.7 13.3C29.9 13.1 29.8 12.8 29.7 12.6L27.5 10.4C27.3 10.2 27 10.2 26.8 10.4L24.5 12.2C23.9 11.8 23.2 11.6 22.5 11.4L22.2 8.5C22 8.2 21.8 8 21.6 8H18.5C18.2 8 18 8.2 18 8.4L17.7 11.3C17 11.5 16.3 11.8 15.7 12.1L13.3 10.4C13.1 10.2 12.8 10.3 12.6 10.4L10.4 12.6C10.2 12.8 10.2 13.1 10.4 13.3L12.2 15.6C11.8 16.2 11.6 16.9 11.4 17.6L8.5 17.9C8.2 18 8 18.2 8 18.4V21.5C8 21.8 8.2 22 8.4 22L11.3 22.3C11.5 23 11.8 23.7 12.1 24.3L10.3 26.6C10.1 26.8 10.2 27.1 10.3 27.3L12.5 29.5C12.7 29.7 13 29.7 13.2 29.5L15.5 27.7C16.1 28.1 16.8 28.3 17.5 28.5L17.8 31.4C17.8 31.7 18 31.8 18.3 31.8H21.4C21.7 31.8 21.9 31.6 21.9 31.4L22.2 28.5C22.9 28.3 23.6 28 24.2 27.7L26.5 29.5C26.7 29.7 27 29.6 27.2 29.5L29.4 27.3C29.6 27.1 29.6 26.8 29.4 26.6L27.6 24.3C28 23.7 28.2 23 28.4 22.3L31.3 22C31.6 22 31.7 21.8 31.7 21.5V18.4C32 18.2 31.8 18 31.6 17.9ZM20 24C17.8 24 16 22.2 16 20C16 17.8 17.8 16 20 16C22.2 16 24 17.8 24 20C24 22.2 22.2 24 20 24Z" fill="#78D5E4"/>
</svg>
