<svg width="150" height="100" viewBox="0 0 150 100" fill="none" xmlns="http://www.w3.org/2000/svg">
<path d="M0 22C0 16.4772 4.47715 12 10 12H71V87H10C4.47715 87 0 82.5228 0 77V22Z" fill="#78D5E4"/>
<path d="M20.0201 69C19.0921 69 18.2921 68.664 17.6201 67.992C16.9801 67.32 16.6601 66.52 16.6601 65.592V39.72C16.6601 38.12 17.1881 36.936 18.2441 36.168C19.3001 35.368 20.9161 34.968 23.0921 34.968V63.432H36.0521C37.5561 63.432 38.6921 63.912 39.4601 64.872C40.2281 65.8 40.6121 67.176 40.6121 69H20.0201ZM54.8925 69.432C52.2685 69.432 49.8685 68.92 47.6925 67.896C45.5165 66.84 43.7885 65.416 42.5085 63.624C41.2605 61.832 40.6365 59.88 40.6365 57.768V46.584C40.6365 44.472 41.2605 42.536 42.5085 40.776C43.7885 38.984 45.5165 37.576 47.6925 36.552C49.8685 35.496 52.2685 34.968 54.8925 34.968C57.5165 34.968 59.9165 35.496 62.0925 36.552C64.3005 37.576 66.0285 38.984 67.2765 40.776C68.5565 42.536 69.1965 44.472 69.1965 46.584V57.768C69.1965 59.88 68.5565 61.832 67.2765 63.624C66.0285 65.416 64.3005 66.84 62.0925 67.896C59.9165 68.92 57.5165 69.432 54.8925 69.432ZM54.8925 63.816C57.2925 63.816 59.2125 63.256 60.6525 62.136C62.0925 60.984 62.8125 59.496 62.8125 57.672V46.728C62.8125 44.872 62.0925 43.384 60.6525 42.264C59.2125 41.112 57.2925 40.536 54.8925 40.536C52.5245 40.536 50.6205 41.112 49.1805 42.264C47.7405 43.384 47.0205 44.872 47.0205 46.728V57.672C47.0205 59.496 47.7405 60.984 49.1805 62.136C50.6205 63.256 52.5245 63.816 54.8925 63.816Z" fill="white"/>
<path d="M87.6716 69.432C84.8236 69.432 82.2796 68.888 80.0396 67.8C77.8316 66.712 76.1036 65.192 74.8556 63.24C73.6076 61.288 72.9836 59.064 72.9836 56.568V47.736C72.9836 45.24 73.5916 43.032 74.8076 41.112C76.0556 39.16 77.7676 37.656 79.9436 36.6C82.1196 35.512 84.6156 34.968 87.4316 34.968C90.2476 34.968 92.7436 35.4 94.9196 36.264C97.1276 37.096 98.8396 38.264 100.056 39.768C101.272 41.272 101.88 43 101.88 44.952C101.88 46.136 101.48 47.064 100.68 47.736C99.9116 48.408 98.8716 48.744 97.5596 48.744C96.9196 48.744 96.2156 48.648 95.4476 48.456C95.5116 47.688 95.5436 46.936 95.5436 46.2C95.5436 44.504 94.7916 43.128 93.2876 42.072C91.7836 41.016 89.8316 40.488 87.4316 40.488C85.0636 40.488 83.1276 41.16 81.6236 42.504C80.1516 43.848 79.4156 45.592 79.4156 47.736V56.568C79.4156 58.712 80.1836 60.472 81.7196 61.848C83.2556 63.224 85.2396 63.912 87.6716 63.912C90.0396 63.912 91.9596 63.368 93.4316 62.28C94.9356 61.16 95.6876 59.72 95.6876 57.96V56.472H91.5596C90.3436 56.472 89.3516 56.008 88.5836 55.08C87.8156 54.12 87.4316 52.888 87.4316 51.384H99.0956C99.9916 51.384 100.712 51.656 101.256 52.2C101.8 52.744 102.072 53.464 102.072 54.36V58.104C102.072 60.312 101.464 62.28 100.248 64.008C99.0316 65.704 97.3196 67.032 95.1116 67.992C92.9356 68.952 90.4556 69.432 87.6716 69.432ZM120.049 69.432C117.425 69.432 115.025 68.92 112.849 67.896C110.673 66.84 108.945 65.416 107.665 63.624C106.417 61.832 105.793 59.88 105.793 57.768V46.584C105.793 44.472 106.417 42.536 107.665 40.776C108.945 38.984 110.673 37.576 112.849 36.552C115.025 35.496 117.425 34.968 120.049 34.968C122.673 34.968 125.073 35.496 127.249 36.552C129.457 37.576 131.185 38.984 132.433 40.776C133.713 42.536 134.353 44.472 134.353 46.584V57.768C134.353 59.88 133.713 61.832 132.433 63.624C131.185 65.416 129.457 66.84 127.249 67.896C125.073 68.92 122.673 69.432 120.049 69.432ZM120.049 63.816C122.449 63.816 124.369 63.256 125.809 62.136C127.249 60.984 127.969 59.496 127.969 57.672V46.728C127.969 44.872 127.249 43.384 125.809 42.264C124.369 41.112 122.449 40.536 120.049 40.536C117.681 40.536 115.777 41.112 114.337 42.264C112.897 43.384 112.177 44.872 112.177 46.728V57.672C112.177 59.496 112.897 60.984 114.337 62.136C115.777 63.256 117.681 63.816 120.049 63.816Z" fill="#78D5E4"/>
</svg>
