<svg width="118" height="36" viewBox="0 0 118 36" fill="none" xmlns="http://www.w3.org/2000/svg">
<path d="M3.52013 35C2.59213 35 1.79213 34.664 1.12013 33.992C0.480125 33.32 0.160125 32.52 0.160125 31.592V5.72C0.160125 4.12 0.688125 2.936 1.74413 2.168C2.80013 1.368 4.41613 0.967998 6.59213 0.967998V29.432H19.5521C21.0561 29.432 22.1921 29.912 22.9601 30.872C23.7281 31.8 24.1121 33.176 24.1121 35H3.52013ZM38.3925 35.432C35.7685 35.432 33.3685 34.92 31.1925 33.896C29.0165 32.84 27.2885 31.416 26.0085 29.624C24.7605 27.832 24.1365 25.88 24.1365 23.768V12.584C24.1365 10.472 24.7605 8.536 26.0085 6.776C27.2885 4.984 29.0165 3.576 31.1925 2.552C33.3685 1.496 35.7685 0.967998 38.3925 0.967998C41.0165 0.967998 43.4165 1.496 45.5925 2.552C47.8005 3.576 49.5285 4.984 50.7765 6.776C52.0565 8.536 52.6965 10.472 52.6965 12.584V23.768C52.6965 25.88 52.0565 27.832 50.7765 29.624C49.5285 31.416 47.8005 32.84 45.5925 33.896C43.4165 34.92 41.0165 35.432 38.3925 35.432ZM38.3925 29.816C40.7925 29.816 42.7125 29.256 44.1525 28.136C45.5925 26.984 46.3125 25.496 46.3125 23.672V12.728C46.3125 10.872 45.5925 9.384 44.1525 8.264C42.7125 7.112 40.7925 6.536 38.3925 6.536C36.0245 6.536 34.1205 7.112 32.6805 8.264C31.2405 9.384 30.5205 10.872 30.5205 12.728V23.672C30.5205 25.496 31.2405 26.984 32.6805 28.136C34.1205 29.256 36.0245 29.816 38.3925 29.816ZM71.1716 35.432C68.3236 35.432 65.7796 34.888 63.5396 33.8C61.3316 32.712 59.6036 31.192 58.3556 29.24C57.1076 27.288 56.4836 25.064 56.4836 22.568V13.736C56.4836 11.24 57.0916 9.032 58.3076 7.112C59.5556 5.16 61.2676 3.656 63.4436 2.6C65.6196 1.512 68.1156 0.967998 70.9316 0.967998C73.7476 0.967998 76.2436 1.4 78.4196 2.264C80.6276 3.096 82.3396 4.264 83.5556 5.768C84.7716 7.272 85.3796 9 85.3796 10.952C85.3796 12.136 84.9796 13.064 84.1796 13.736C83.4116 14.408 82.3716 14.744 81.0596 14.744C80.4196 14.744 79.7156 14.648 78.9476 14.456C79.0116 13.688 79.0436 12.936 79.0436 12.2C79.0436 10.504 78.2916 9.128 76.7876 8.072C75.2836 7.016 73.3316 6.488 70.9316 6.488C68.5636 6.488 66.6276 7.16 65.1236 8.504C63.6516 9.848 62.9156 11.592 62.9156 13.736V22.568C62.9156 24.712 63.6836 26.472 65.2196 27.848C66.7556 29.224 68.7396 29.912 71.1716 29.912C73.5396 29.912 75.4596 29.368 76.9316 28.28C78.4356 27.16 79.1876 25.72 79.1876 23.96V22.472H75.0596C73.8436 22.472 72.8516 22.008 72.0836 21.08C71.3156 20.12 70.9316 18.888 70.9316 17.384H82.5956C83.4916 17.384 84.2116 17.656 84.7556 18.2C85.2996 18.744 85.5716 19.464 85.5716 20.36V24.104C85.5716 26.312 84.9636 28.28 83.7476 30.008C82.5316 31.704 80.8196 33.032 78.6116 33.992C76.4356 34.952 73.9556 35.432 71.1716 35.432ZM103.549 35.432C100.925 35.432 98.5248 34.92 96.3488 33.896C94.1728 32.84 92.4448 31.416 91.1648 29.624C89.9168 27.832 89.2928 25.88 89.2928 23.768V12.584C89.2928 10.472 89.9168 8.536 91.1648 6.776C92.4448 4.984 94.1728 3.576 96.3488 2.552C98.5248 1.496 100.925 0.967998 103.549 0.967998C106.173 0.967998 108.573 1.496 110.749 2.552C112.957 3.576 114.685 4.984 115.933 6.776C117.213 8.536 117.853 10.472 117.853 12.584V23.768C117.853 25.88 117.213 27.832 115.933 29.624C114.685 31.416 112.957 32.84 110.749 33.896C108.573 34.92 106.173 35.432 103.549 35.432ZM103.549 29.816C105.949 29.816 107.869 29.256 109.309 28.136C110.749 26.984 111.469 25.496 111.469 23.672V12.728C111.469 10.872 110.749 9.384 109.309 8.264C107.869 7.112 105.949 6.536 103.549 6.536C101.181 6.536 99.2768 7.112 97.8368 8.264C96.3968 9.384 95.6768 10.872 95.6768 12.728V23.672C95.6768 25.496 96.3968 26.984 97.8368 28.136C99.2768 29.256 101.181 29.816 103.549 29.816Z" fill="white"/>
</svg>
